<?xml version="1.0" encoding="UTF-8" standalone="no"?>
<!DOCTYPE svg PUBLIC "-//W3C//DTD SVG 1.1//EN"
 "http://www.w3.org/Graphics/SVG/1.1/DTD/svg11.dtd">
<!-- Generated by graphviz version 2.43.0 (0)
 -->
<!-- Title: snakemake_dag Pages: 1 -->
<svg width="342pt" height="1124pt"
 viewBox="0.00 0.00 341.50 1124.00" xmlns="http://www.w3.org/2000/svg" xmlns:xlink="http://www.w3.org/1999/xlink">
<g id="graph0" class="graph" transform="scale(1 1) rotate(0) translate(4 1120)">
<title>snakemake_dag</title>
<polygon fill="white" stroke="transparent" points="-4,4 -4,-1120 337.5,-1120 337.5,4 -4,4"/>
<!-- 0 -->
<g id="node1" class="node">
<title>0</title>
<path fill="none" stroke="#56d882" stroke-width="2" stroke-dasharray="5,2" d="M128,-36C128,-36 98,-36 98,-36 92,-36 86,-30 86,-24 86,-24 86,-12 86,-12 86,-6 92,0 98,0 98,0 128,0 128,0 134,0 140,-6 140,-12 140,-12 140,-24 140,-24 140,-30 134,-36 128,-36"/>
<text text-anchor="middle" x="113" y="-15.5" font-family="sans" font-size="10.00">export</text>
</g>
<!-- 1 -->
<g id="node2" class="node">
<title>1</title>
<path fill="none" stroke="#d87556" stroke-width="2" stroke-dasharray="5,2" d="M152,-108C152,-108 74,-108 74,-108 68,-108 62,-102 62,-96 62,-96 62,-84 62,-84 62,-78 68,-72 74,-72 74,-72 152,-72 152,-72 158,-72 164,-78 164,-84 164,-84 164,-96 164,-96 164,-102 158,-108 152,-108"/>
<text text-anchor="middle" x="113" y="-87.5" font-family="sans" font-size="10.00">compress_results</text>
</g>
<!-- 1&#45;&gt;0 -->
<g id="edge1" class="edge">
<title>1&#45;&gt;0</title>
<path fill="none" stroke="grey" stroke-width="2" d="M113,-71.7C113,-63.98 113,-54.71 113,-46.11"/>
<polygon fill="grey" stroke="grey" stroke-width="2" points="116.5,-46.1 113,-36.1 109.5,-46.1 116.5,-46.1"/>
</g>
<!-- 2 -->
<g id="node3" class="node">
<title>2</title>
<path fill="none" stroke="#56d8c1" stroke-width="2" stroke-dasharray="5,2" d="M92,-180C92,-180 12,-180 12,-180 6,-180 0,-174 0,-168 0,-168 0,-156 0,-156 0,-150 6,-144 12,-144 12,-144 92,-144 92,-144 98,-144 104,-150 104,-156 104,-156 104,-168 104,-168 104,-174 98,-180 92,-180"/>
<text text-anchor="middle" x="52" y="-159.5" font-family="sans" font-size="10.00">postannotatefilter</text>
</g>
<!-- 2&#45;&gt;1 -->
<g id="edge2" class="edge">
<title>2&#45;&gt;1</title>
<path fill="none" stroke="grey" stroke-width="2" d="M67.08,-143.7C74.39,-135.3 83.31,-125.07 91.34,-115.86"/>
<polygon fill="grey" stroke="grey" stroke-width="2" points="94.16,-117.94 98.09,-108.1 88.89,-113.34 94.16,-117.94"/>
</g>
<!-- 3 -->
<g id="node4" class="node">
<title>3</title>
<path fill="none" stroke="#88d856" stroke-width="2" stroke-dasharray="5,2" d="M70,-252C70,-252 34,-252 34,-252 28,-252 22,-246 22,-240 22,-240 22,-228 22,-228 22,-222 28,-216 34,-216 34,-216 70,-216 70,-216 76,-216 82,-222 82,-228 82,-228 82,-240 82,-240 82,-246 76,-252 70,-252"/>
<text text-anchor="middle" x="52" y="-231.5" font-family="sans" font-size="10.00">annotate</text>
</g>
<!-- 3&#45;&gt;2 -->
<g id="edge4" class="edge">
<title>3&#45;&gt;2</title>
<path fill="none" stroke="grey" stroke-width="2" d="M52,-215.7C52,-207.98 52,-198.71 52,-190.11"/>
<polygon fill="grey" stroke="grey" stroke-width="2" points="55.5,-190.1 52,-180.1 48.5,-190.1 55.5,-190.1"/>
</g>
<!-- 4 -->
<g id="node5" class="node">
<title>4</title>
<path fill="none" stroke="#d8d356" stroke-width="2" stroke-dasharray="5,2" d="M80,-324C80,-324 30,-324 30,-324 24,-324 18,-318 18,-312 18,-312 18,-300 18,-300 18,-294 24,-288 30,-288 30,-288 80,-288 80,-288 86,-288 92,-294 92,-300 92,-300 92,-312 92,-312 92,-318 86,-324 80,-324"/>
<text text-anchor="middle" x="55" y="-303.5" font-family="sans" font-size="10.00">secondfilter</text>
</g>
<!-- 4&#45;&gt;3 -->
<g id="edge5" class="edge">
<title>4&#45;&gt;3</title>
<path fill="none" stroke="grey" stroke-width="2" d="M54.26,-287.7C53.93,-279.98 53.53,-270.71 53.16,-262.11"/>
<polygon fill="grey" stroke="grey" stroke-width="2" points="56.66,-261.95 52.73,-252.1 49.66,-262.25 56.66,-261.95"/>
</g>
<!-- 5 -->
<g id="node6" class="node">
<title>5</title>
<path fill="none" stroke="#5692d8" stroke-width="2" stroke-dasharray="5,2" d="M89,-396C89,-396 27,-396 27,-396 21,-396 15,-390 15,-384 15,-384 15,-372 15,-372 15,-366 21,-360 27,-360 27,-360 89,-360 89,-360 95,-360 101,-366 101,-372 101,-372 101,-384 101,-384 101,-390 95,-396 89,-396"/>
<text text-anchor="middle" x="58" y="-381" font-family="sans" font-size="10.00">secondextract</text>
<text text-anchor="middle" x="58" y="-370" font-family="sans" font-size="10.00">vartype2: SNP</text>
</g>
<!-- 5&#45;&gt;4 -->
<g id="edge7" class="edge">
<title>5&#45;&gt;4</title>
<path fill="none" stroke="grey" stroke-width="2" d="M57.26,-359.7C56.93,-351.98 56.53,-342.71 56.16,-334.11"/>
<polygon fill="grey" stroke="grey" stroke-width="2" points="59.66,-333.95 55.73,-324.1 52.66,-334.25 59.66,-333.95"/>
</g>
<!-- 6 -->
<g id="node7" class="node">
<title>6</title>
<path fill="none" stroke="#9fd856" stroke-width="2" stroke-dasharray="5,2" d="M133,-468C133,-468 91,-468 91,-468 85,-468 79,-462 79,-456 79,-456 79,-444 79,-444 79,-438 85,-432 91,-432 91,-432 133,-432 133,-432 139,-432 145,-438 145,-444 145,-444 145,-456 145,-456 145,-462 139,-468 133,-468"/>
<text text-anchor="middle" x="112" y="-447.5" font-family="sans" font-size="10.00">secondvcf</text>
</g>
<!-- 6&#45;&gt;5 -->
<g id="edge8" class="edge">
<title>6&#45;&gt;5</title>
<path fill="none" stroke="grey" stroke-width="2" d="M98.65,-431.7C92.24,-423.39 84.44,-413.28 77.39,-404.14"/>
<polygon fill="grey" stroke="grey" stroke-width="2" points="80.07,-401.88 71.19,-396.1 74.53,-406.16 80.07,-401.88"/>
</g>
<!-- 22 -->
<g id="node23" class="node">
<title>22</title>
<path fill="none" stroke="#5692d8" stroke-width="2" stroke-dasharray="5,2" d="M202.5,-396C202.5,-396 131.5,-396 131.5,-396 125.5,-396 119.5,-390 119.5,-384 119.5,-384 119.5,-372 119.5,-372 119.5,-366 125.5,-360 131.5,-360 131.5,-360 202.5,-360 202.5,-360 208.5,-360 214.5,-366 214.5,-372 214.5,-372 214.5,-384 214.5,-384 214.5,-390 208.5,-396 202.5,-396"/>
<text text-anchor="middle" x="167" y="-381" font-family="sans" font-size="10.00">secondextract</text>
<text text-anchor="middle" x="167" y="-370" font-family="sans" font-size="10.00">vartype2: INDEL</text>
</g>
<!-- 6&#45;&gt;22 -->
<g id="edge28" class="edge">
<title>6&#45;&gt;22</title>
<path fill="none" stroke="grey" stroke-width="2" d="M125.6,-431.7C132.12,-423.39 140.07,-413.28 147.25,-404.14"/>
<polygon fill="grey" stroke="grey" stroke-width="2" points="150.13,-406.13 153.56,-396.1 144.63,-401.81 150.13,-406.13"/>
</g>
<!-- 7 -->
<g id="node8" class="node">
<title>7</title>
<path fill="none" stroke="#bed856" stroke-width="2" stroke-dasharray="5,2" d="M138.5,-540C138.5,-540 85.5,-540 85.5,-540 79.5,-540 73.5,-534 73.5,-528 73.5,-528 73.5,-516 73.5,-516 73.5,-510 79.5,-504 85.5,-504 85.5,-504 138.5,-504 138.5,-504 144.5,-504 150.5,-510 150.5,-516 150.5,-516 150.5,-528 150.5,-528 150.5,-534 144.5,-540 138.5,-540"/>
<text text-anchor="middle" x="112" y="-519.5" font-family="sans" font-size="10.00">applyrecalib</text>
</g>
<!-- 7&#45;&gt;3 -->
<g id="edge6" class="edge">
<title>7&#45;&gt;3</title>
<path fill="none" stroke="grey" stroke-width="2" d="M90.25,-503.92C64.43,-482.11 22.76,-441.68 6,-396 0.37,-380.65 2.39,-305.48 9,-288 12.88,-277.75 19.56,-268 26.52,-259.71"/>
<polygon fill="grey" stroke="grey" stroke-width="2" points="29.14,-262.04 33.19,-252.25 23.92,-257.37 29.14,-262.04"/>
</g>
<!-- 7&#45;&gt;6 -->
<g id="edge9" class="edge">
<title>7&#45;&gt;6</title>
<path fill="none" stroke="grey" stroke-width="2" d="M112,-503.7C112,-495.98 112,-486.71 112,-478.11"/>
<polygon fill="grey" stroke="grey" stroke-width="2" points="115.5,-478.1 112,-468.1 108.5,-478.1 115.5,-478.1"/>
</g>
<!-- 20 -->
<g id="node21" class="node">
<title>20</title>
<path fill="none" stroke="#88d856" stroke-width="2" stroke-dasharray="5,2" d="M192,-252C192,-252 156,-252 156,-252 150,-252 144,-246 144,-240 144,-240 144,-228 144,-228 144,-222 150,-216 156,-216 156,-216 192,-216 192,-216 198,-216 204,-222 204,-228 204,-228 204,-240 204,-240 204,-246 198,-252 192,-252"/>
<text text-anchor="middle" x="174" y="-231.5" font-family="sans" font-size="10.00">annotate</text>
</g>
<!-- 7&#45;&gt;20 -->
<g id="edge26" class="edge">
<title>7&#45;&gt;20</title>
<path fill="none" stroke="grey" stroke-width="2" d="M135.44,-503.82C162.72,-482.21 206.3,-442.27 224,-396 231.05,-377.56 222.83,-299.82 218,-288 213.82,-277.77 206.92,-268.01 199.81,-259.72"/>
<polygon fill="grey" stroke="grey" stroke-width="2" points="202.33,-257.3 193.01,-252.26 197.16,-262.01 202.33,-257.3"/>
</g>
<!-- 8 -->
<g id="node9" class="node">
<title>8</title>
<path fill="none" stroke="#5673d8" stroke-width="2" stroke-dasharray="5,2" d="M183.5,-612C183.5,-612 134.5,-612 134.5,-612 128.5,-612 122.5,-606 122.5,-600 122.5,-600 122.5,-588 122.5,-588 122.5,-582 128.5,-576 134.5,-576 134.5,-576 183.5,-576 183.5,-576 189.5,-576 195.5,-582 195.5,-588 195.5,-588 195.5,-600 195.5,-600 195.5,-606 189.5,-612 183.5,-612"/>
<text text-anchor="middle" x="159" y="-591.5" font-family="sans" font-size="10.00">baserecalib</text>
</g>
<!-- 8&#45;&gt;7 -->
<g id="edge10" class="edge">
<title>8&#45;&gt;7</title>
<path fill="none" stroke="grey" stroke-width="2" d="M147.38,-575.7C141.86,-567.47 135.15,-557.48 129.07,-548.42"/>
<polygon fill="grey" stroke="grey" stroke-width="2" points="131.96,-546.46 123.48,-540.1 126.15,-550.36 131.96,-546.46"/>
</g>
<!-- 9 -->
<g id="node10" class="node">
<title>9</title>
<path fill="none" stroke="#56d0d8" stroke-width="2" stroke-dasharray="5,2" d="M189.5,-684C189.5,-684 158.5,-684 158.5,-684 152.5,-684 146.5,-678 146.5,-672 146.5,-672 146.5,-660 146.5,-660 146.5,-654 152.5,-648 158.5,-648 158.5,-648 189.5,-648 189.5,-648 195.5,-648 201.5,-654 201.5,-660 201.5,-660 201.5,-672 201.5,-672 201.5,-678 195.5,-684 189.5,-684"/>
<text text-anchor="middle" x="174" y="-663.5" font-family="sans" font-size="10.00">exclude</text>
</g>
<!-- 9&#45;&gt;8 -->
<g id="edge12" class="edge">
<title>9&#45;&gt;8</title>
<path fill="none" stroke="grey" stroke-width="2" d="M170.29,-647.7C168.64,-639.98 166.65,-630.71 164.81,-622.11"/>
<polygon fill="grey" stroke="grey" stroke-width="2" points="168.18,-621.15 162.67,-612.1 161.34,-622.62 168.18,-621.15"/>
</g>
<!-- 10 -->
<g id="node11" class="node">
<title>10</title>
<path fill="none" stroke="#56d863" stroke-width="2" stroke-dasharray="5,2" d="M197,-756C197,-756 163,-756 163,-756 157,-756 151,-750 151,-744 151,-744 151,-732 151,-732 151,-726 157,-720 163,-720 163,-720 197,-720 197,-720 203,-720 209,-726 209,-732 209,-732 209,-744 209,-744 209,-750 203,-756 197,-756"/>
<text text-anchor="middle" x="180" y="-735.5" font-family="sans" font-size="10.00">firstfilter</text>
</g>
<!-- 10&#45;&gt;9 -->
<g id="edge15" class="edge">
<title>10&#45;&gt;9</title>
<path fill="none" stroke="grey" stroke-width="2" d="M178.52,-719.7C177.86,-711.98 177.06,-702.71 176.32,-694.11"/>
<polygon fill="grey" stroke="grey" stroke-width="2" points="179.81,-693.77 175.47,-684.1 172.83,-694.37 179.81,-693.77"/>
</g>
<!-- 11 -->
<g id="node12" class="node">
<title>11</title>
<path fill="none" stroke="#d89556" stroke-width="2" stroke-dasharray="5,2" d="M214,-828C214,-828 158,-828 158,-828 152,-828 146,-822 146,-816 146,-816 146,-804 146,-804 146,-798 152,-792 158,-792 158,-792 214,-792 214,-792 220,-792 226,-798 226,-804 226,-804 226,-816 226,-816 226,-822 220,-828 214,-828"/>
<text text-anchor="middle" x="186" y="-813" font-family="sans" font-size="10.00">firstextract</text>
<text text-anchor="middle" x="186" y="-802" font-family="sans" font-size="10.00">vartype: SNP</text>
</g>
<!-- 11&#45;&gt;10 -->
<g id="edge16" class="edge">
<title>11&#45;&gt;10</title>
<path fill="none" stroke="grey" stroke-width="2" d="M184.52,-791.7C183.86,-783.98 183.06,-774.71 182.32,-766.11"/>
<polygon fill="grey" stroke="grey" stroke-width="2" points="185.81,-765.77 181.47,-756.1 178.83,-766.37 185.81,-765.77"/>
</g>
<!-- 12 -->
<g id="node13" class="node">
<title>12</title>
<path fill="none" stroke="#56b1d8" stroke-width="2" stroke-dasharray="5,2" d="M201,-900C201,-900 171,-900 171,-900 165,-900 159,-894 159,-888 159,-888 159,-876 159,-876 159,-870 165,-864 171,-864 171,-864 201,-864 201,-864 207,-864 213,-870 213,-876 213,-876 213,-888 213,-888 213,-894 207,-900 201,-900"/>
<text text-anchor="middle" x="186" y="-879.5" font-family="sans" font-size="10.00">firstvcf</text>
</g>
<!-- 12&#45;&gt;11 -->
<g id="edge17" class="edge">
<title>12&#45;&gt;11</title>
<path fill="none" stroke="grey" stroke-width="2" d="M186,-863.7C186,-855.98 186,-846.71 186,-838.11"/>
<polygon fill="grey" stroke="grey" stroke-width="2" points="189.5,-838.1 186,-828.1 182.5,-838.1 189.5,-838.1"/>
</g>
<!-- 18 -->
<g id="node19" class="node">
<title>18</title>
<path fill="none" stroke="#d89556" stroke-width="2" stroke-dasharray="5,2" d="M321.5,-828C321.5,-828 256.5,-828 256.5,-828 250.5,-828 244.5,-822 244.5,-816 244.5,-816 244.5,-804 244.5,-804 244.5,-798 250.5,-792 256.5,-792 256.5,-792 321.5,-792 321.5,-792 327.5,-792 333.5,-798 333.5,-804 333.5,-804 333.5,-816 333.5,-816 333.5,-822 327.5,-828 321.5,-828"/>
<text text-anchor="middle" x="289" y="-813" font-family="sans" font-size="10.00">firstextract</text>
<text text-anchor="middle" x="289" y="-802" font-family="sans" font-size="10.00">vartype: INDEL</text>
</g>
<!-- 12&#45;&gt;18 -->
<g id="edge23" class="edge">
<title>12&#45;&gt;18</title>
<path fill="none" stroke="grey" stroke-width="2" d="M211.2,-863.88C224.41,-854.89 240.79,-843.76 255.11,-834.03"/>
<polygon fill="grey" stroke="grey" stroke-width="2" points="257.4,-836.71 263.71,-828.19 253.47,-830.92 257.4,-836.71"/>
</g>
<!-- 13 -->
<g id="node14" class="node">
<title>13</title>
<path fill="none" stroke="#68d856" stroke-width="2" stroke-dasharray="5,2" d="M136,-972C136,-972 100,-972 100,-972 94,-972 88,-966 88,-960 88,-960 88,-948 88,-948 88,-942 94,-936 100,-936 100,-936 136,-936 136,-936 142,-936 148,-942 148,-948 148,-948 148,-960 148,-960 148,-966 142,-972 136,-972"/>
<text text-anchor="middle" x="118" y="-951.5" font-family="sans" font-size="10.00">markdup</text>
</g>
<!-- 13&#45;&gt;7 -->
<g id="edge11" class="edge">
<title>13&#45;&gt;7</title>
<path fill="none" stroke="grey" stroke-width="2" d="M110.31,-935.91C99.21,-909.62 80,-857.45 80,-811 80,-811 80,-811 80,-665 80,-624.04 92.83,-578.02 102.24,-549.77"/>
<polygon fill="grey" stroke="grey" stroke-width="2" points="105.59,-550.8 105.52,-540.21 98.97,-548.53 105.59,-550.8"/>
</g>
<!-- 13&#45;&gt;8 -->
<g id="edge14" class="edge">
<title>13&#45;&gt;8</title>
<path fill="none" stroke="grey" stroke-width="2" d="M118,-935.95C118,-909.29 118,-856.11 118,-811 118,-811 118,-811 118,-737 118,-695.41 134.44,-649.56 146.5,-621.51"/>
<polygon fill="grey" stroke="grey" stroke-width="2" points="149.85,-622.59 150.7,-612.03 143.45,-619.75 149.85,-622.59"/>
</g>
<!-- 13&#45;&gt;12 -->
<g id="edge18" class="edge">
<title>13&#45;&gt;12</title>
<path fill="none" stroke="grey" stroke-width="2" d="M134.81,-935.7C143.13,-927.14 153.31,-916.66 162.39,-907.3"/>
<polygon fill="grey" stroke="grey" stroke-width="2" points="164.93,-909.72 169.38,-900.1 159.91,-904.84 164.93,-909.72"/>
</g>
<!-- 14 -->
<g id="node15" class="node">
<title>14</title>
<path fill="none" stroke="#56d8a2" stroke-width="2" stroke-dasharray="5,2" d="M155.5,-1044C155.5,-1044 80.5,-1044 80.5,-1044 74.5,-1044 68.5,-1038 68.5,-1032 68.5,-1032 68.5,-1020 68.5,-1020 68.5,-1014 74.5,-1008 80.5,-1008 80.5,-1008 155.5,-1008 155.5,-1008 161.5,-1008 167.5,-1014 167.5,-1020 167.5,-1020 167.5,-1032 167.5,-1032 167.5,-1038 161.5,-1044 155.5,-1044"/>
<text text-anchor="middle" x="118" y="-1023.5" font-family="sans" font-size="10.00">postalignprocess</text>
</g>
<!-- 14&#45;&gt;13 -->
<g id="edge19" class="edge">
<title>14&#45;&gt;13</title>
<path fill="none" stroke="grey" stroke-width="2" d="M118,-1007.7C118,-999.98 118,-990.71 118,-982.11"/>
<polygon fill="grey" stroke="grey" stroke-width="2" points="121.5,-982.1 118,-972.1 114.5,-982.1 121.5,-982.1"/>
</g>
<!-- 15 -->
<g id="node16" class="node">
<title>15</title>
<path fill="none" stroke="#d85656" stroke-width="2" stroke-dasharray="5,2" d="M133,-1116C133,-1116 103,-1116 103,-1116 97,-1116 91,-1110 91,-1104 91,-1104 91,-1092 91,-1092 91,-1086 97,-1080 103,-1080 103,-1080 133,-1080 133,-1080 139,-1080 145,-1086 145,-1092 145,-1092 145,-1104 145,-1104 145,-1110 139,-1116 133,-1116"/>
<text text-anchor="middle" x="118" y="-1095.5" font-family="sans" font-size="10.00">align</text>
</g>
<!-- 15&#45;&gt;14 -->
<g id="edge20" class="edge">
<title>15&#45;&gt;14</title>
<path fill="none" stroke="grey" stroke-width="2" d="M118,-1079.7C118,-1071.98 118,-1062.71 118,-1054.11"/>
<polygon fill="grey" stroke="grey" stroke-width="2" points="121.5,-1054.1 118,-1044.1 114.5,-1054.1 121.5,-1054.1"/>
</g>
<!-- 16 -->
<g id="node17" class="node">
<title>16</title>
<path fill="none" stroke="#56d0d8" stroke-width="2" stroke-dasharray="5,2" d="M264.5,-684C264.5,-684 233.5,-684 233.5,-684 227.5,-684 221.5,-678 221.5,-672 221.5,-672 221.5,-660 221.5,-660 221.5,-654 227.5,-648 233.5,-648 233.5,-648 264.5,-648 264.5,-648 270.5,-648 276.5,-654 276.5,-660 276.5,-660 276.5,-672 276.5,-672 276.5,-678 270.5,-684 264.5,-684"/>
<text text-anchor="middle" x="249" y="-663.5" font-family="sans" font-size="10.00">exclude</text>
</g>
<!-- 16&#45;&gt;8 -->
<g id="edge13" class="edge">
<title>16&#45;&gt;8</title>
<path fill="none" stroke="grey" stroke-width="2" d="M226.75,-647.7C215.42,-638.88 201.47,-628.03 189.18,-618.47"/>
<polygon fill="grey" stroke="grey" stroke-width="2" points="191.03,-615.48 180.99,-612.1 186.74,-621.01 191.03,-615.48"/>
</g>
<!-- 17 -->
<g id="node18" class="node">
<title>17</title>
<path fill="none" stroke="#56d863" stroke-width="2" stroke-dasharray="5,2" d="M289,-756C289,-756 255,-756 255,-756 249,-756 243,-750 243,-744 243,-744 243,-732 243,-732 243,-726 249,-720 255,-720 255,-720 289,-720 289,-720 295,-720 301,-726 301,-732 301,-732 301,-744 301,-744 301,-750 295,-756 289,-756"/>
<text text-anchor="middle" x="272" y="-735.5" font-family="sans" font-size="10.00">firstfilter</text>
</g>
<!-- 17&#45;&gt;16 -->
<g id="edge21" class="edge">
<title>17&#45;&gt;16</title>
<path fill="none" stroke="grey" stroke-width="2" d="M266.31,-719.7C263.75,-711.9 260.67,-702.51 257.82,-693.83"/>
<polygon fill="grey" stroke="grey" stroke-width="2" points="261.07,-692.51 254.62,-684.1 254.42,-694.7 261.07,-692.51"/>
</g>
<!-- 18&#45;&gt;17 -->
<g id="edge22" class="edge">
<title>18&#45;&gt;17</title>
<path fill="none" stroke="grey" stroke-width="2" d="M284.8,-791.7C282.9,-783.9 280.62,-774.51 278.52,-765.83"/>
<polygon fill="grey" stroke="grey" stroke-width="2" points="281.92,-765 276.15,-756.1 275.11,-766.65 281.92,-765"/>
</g>
<!-- 19 -->
<g id="node20" class="node">
<title>19</title>
<path fill="none" stroke="#56d8c1" stroke-width="2" stroke-dasharray="5,2" d="M214,-180C214,-180 134,-180 134,-180 128,-180 122,-174 122,-168 122,-168 122,-156 122,-156 122,-150 128,-144 134,-144 134,-144 214,-144 214,-144 220,-144 226,-150 226,-156 226,-156 226,-168 226,-168 226,-174 220,-180 214,-180"/>
<text text-anchor="middle" x="174" y="-159.5" font-family="sans" font-size="10.00">postannotatefilter</text>
</g>
<!-- 19&#45;&gt;1 -->
<g id="edge3" class="edge">
<title>19&#45;&gt;1</title>
<path fill="none" stroke="grey" stroke-width="2" d="M158.92,-143.7C151.61,-135.3 142.69,-125.07 134.66,-115.86"/>
<polygon fill="grey" stroke="grey" stroke-width="2" points="137.11,-113.34 127.91,-108.1 131.84,-117.94 137.11,-113.34"/>
</g>
<!-- 20&#45;&gt;19 -->
<g id="edge24" class="edge">
<title>20&#45;&gt;19</title>
<path fill="none" stroke="grey" stroke-width="2" d="M174,-215.7C174,-207.98 174,-198.71 174,-190.11"/>
<polygon fill="grey" stroke="grey" stroke-width="2" points="177.5,-190.1 174,-180.1 170.5,-190.1 177.5,-190.1"/>
</g>
<!-- 21 -->
<g id="node22" class="node">
<title>21</title>
<path fill="none" stroke="#d8d356" stroke-width="2" stroke-dasharray="5,2" d="M197,-324C197,-324 147,-324 147,-324 141,-324 135,-318 135,-312 135,-312 135,-300 135,-300 135,-294 141,-288 147,-288 147,-288 197,-288 197,-288 203,-288 209,-294 209,-300 209,-300 209,-312 209,-312 209,-318 203,-324 197,-324"/>
<text text-anchor="middle" x="172" y="-303.5" font-family="sans" font-size="10.00">secondfilter</text>
</g>
<!-- 21&#45;&gt;20 -->
<g id="edge25" class="edge">
<title>21&#45;&gt;20</title>
<path fill="none" stroke="grey" stroke-width="2" d="M172.49,-287.7C172.71,-279.98 172.98,-270.71 173.23,-262.11"/>
<polygon fill="grey" stroke="grey" stroke-width="2" points="176.72,-262.2 173.51,-252.1 169.73,-262 176.72,-262.2"/>
</g>
<!-- 22&#45;&gt;21 -->
<g id="edge27" class="edge">
<title>22&#45;&gt;21</title>
<path fill="none" stroke="grey" stroke-width="2" d="M168.24,-359.7C168.79,-351.98 169.45,-342.71 170.06,-334.11"/>
<polygon fill="grey" stroke="grey" stroke-width="2" points="173.56,-334.33 170.78,-324.1 166.57,-333.83 173.56,-334.33"/>
</g>
</g>
</svg>
