<?xml version="1.0" encoding="UTF-8" standalone="no"?>
<!DOCTYPE svg PUBLIC "-//W3C//DTD SVG 1.1//EN"
 "http://www.w3.org/Graphics/SVG/1.1/DTD/svg11.dtd">
<!-- Generated by graphviz version 2.43.0 (0)
 -->
<!-- Title: snakemake_dag Pages: 1 -->
<svg width="973pt" height="1412pt"
 viewBox="0.00 0.00 973.45 1412.00" xmlns="http://www.w3.org/2000/svg" xmlns:xlink="http://www.w3.org/1999/xlink">
<g id="graph0" class="graph" transform="scale(1 1) rotate(0) translate(4 1408)">
<title>snakemake_dag</title>
<polygon fill="white" stroke="transparent" points="-4,4 -4,-1408 969.45,-1408 969.45,4 -4,4"/>
<!-- 0 -->
<g id="node1" class="node">
<title>0</title>
<path fill="none" stroke="#d85656" stroke-width="2" d="M365,-36C365,-36 335,-36 335,-36 329,-36 323,-30 323,-24 323,-24 323,-12 323,-12 323,-6 329,0 335,0 335,0 365,0 365,0 371,0 377,-6 377,-12 377,-12 377,-24 377,-24 377,-30 371,-36 365,-36"/>
<text text-anchor="middle" x="350" y="-15.5" font-family="sans" font-size="10.00">export</text>
</g>
<!-- 1 -->
<g id="node2" class="node">
<title>1</title>
<path fill="none" stroke="#88d856" stroke-width="2" d="M389,-108C389,-108 311,-108 311,-108 305,-108 299,-102 299,-96 299,-96 299,-84 299,-84 299,-78 305,-72 311,-72 311,-72 389,-72 389,-72 395,-72 401,-78 401,-84 401,-84 401,-96 401,-96 401,-102 395,-108 389,-108"/>
<text text-anchor="middle" x="350" y="-87.5" font-family="sans" font-size="10.00">compress_results</text>
</g>
<!-- 1&#45;&gt;0 -->
<g id="edge1" class="edge">
<title>1&#45;&gt;0</title>
<path fill="none" stroke="grey" stroke-width="2" d="M350,-71.7C350,-63.98 350,-54.71 350,-46.11"/>
<polygon fill="grey" stroke="grey" stroke-width="2" points="353.5,-46.1 350,-36.1 346.5,-46.1 353.5,-46.1"/>
</g>
<!-- 2 -->
<g id="node3" class="node">
<title>2</title>
<path fill="none" stroke="#566bd8" stroke-width="2" d="M329,-180C329,-180 249,-180 249,-180 243,-180 237,-174 237,-168 237,-168 237,-156 237,-156 237,-150 243,-144 249,-144 249,-144 329,-144 329,-144 335,-144 341,-150 341,-156 341,-156 341,-168 341,-168 341,-174 335,-180 329,-180"/>
<text text-anchor="middle" x="289" y="-159.5" font-family="sans" font-size="10.00">postannotatefilter</text>
</g>
<!-- 2&#45;&gt;1 -->
<g id="edge2" class="edge">
<title>2&#45;&gt;1</title>
<path fill="none" stroke="grey" stroke-width="2" d="M304.08,-143.7C311.39,-135.3 320.31,-125.07 328.34,-115.86"/>
<polygon fill="grey" stroke="grey" stroke-width="2" points="331.16,-117.94 335.09,-108.1 325.89,-113.34 331.16,-117.94"/>
</g>
<!-- 3 -->
<g id="node4" class="node">
<title>3</title>
<path fill="none" stroke="#d8a456" stroke-width="2" d="M198,-252C198,-252 162,-252 162,-252 156,-252 150,-246 150,-240 150,-240 150,-228 150,-228 150,-222 156,-216 162,-216 162,-216 198,-216 198,-216 204,-216 210,-222 210,-228 210,-228 210,-240 210,-240 210,-246 204,-252 198,-252"/>
<text text-anchor="middle" x="180" y="-231.5" font-family="sans" font-size="10.00">annotate</text>
</g>
<!-- 3&#45;&gt;2 -->
<g id="edge4" class="edge">
<title>3&#45;&gt;2</title>
<path fill="none" stroke="grey" stroke-width="2" d="M206.66,-215.88C220.78,-206.81 238.31,-195.55 253.56,-185.76"/>
<polygon fill="grey" stroke="grey" stroke-width="2" points="255.71,-188.54 262.23,-180.19 251.93,-182.65 255.71,-188.54"/>
</g>
<!-- 4 -->
<g id="node5" class="node">
<title>4</title>
<path fill="none" stroke="#56a2d8" stroke-width="2" d="M458.5,-1188C458.5,-1188 413.5,-1188 413.5,-1188 407.5,-1188 401.5,-1182 401.5,-1176 401.5,-1176 401.5,-1164 401.5,-1164 401.5,-1158 407.5,-1152 413.5,-1152 413.5,-1152 458.5,-1152 458.5,-1152 464.5,-1152 470.5,-1158 470.5,-1164 470.5,-1164 470.5,-1176 470.5,-1176 470.5,-1182 464.5,-1188 458.5,-1188"/>
<text text-anchor="middle" x="436" y="-1167.5" font-family="sans" font-size="10.00">reconfigref</text>
</g>
<!-- 4&#45;&gt;3 -->
<g id="edge5" class="edge">
<title>4&#45;&gt;3</title>
<path fill="none" stroke="grey" stroke-width="2" d="M401.25,-1158.53C393.01,-1156.22 384.23,-1153.9 376,-1152 287.57,-1131.61 247.8,-1170.19 175,-1116 139.45,-1089.53 130,-1071.32 130,-1027 130,-1027 130,-1027 130,-593 130,-504.37 148.92,-483.81 161,-396 167.45,-349.16 173.62,-294.45 177.09,-262.38"/>
<polygon fill="grey" stroke="grey" stroke-width="2" points="180.58,-262.74 178.17,-252.42 173.62,-261.99 180.58,-262.74"/>
</g>
<!-- 9 -->
<g id="node10" class="node">
<title>9</title>
<path fill="none" stroke="#bed856" stroke-width="2" d="M134,-324C134,-324 84,-324 84,-324 78,-324 72,-318 72,-312 72,-312 72,-300 72,-300 72,-294 78,-288 84,-288 84,-288 134,-288 134,-288 140,-288 146,-294 146,-300 146,-300 146,-312 146,-312 146,-318 140,-324 134,-324"/>
<text text-anchor="middle" x="109" y="-303.5" font-family="sans" font-size="10.00">secondfilter</text>
</g>
<!-- 4&#45;&gt;9 -->
<g id="edge14" class="edge">
<title>4&#45;&gt;9</title>
<path fill="none" stroke="grey" stroke-width="2" d="M401.32,-1158.21C393.08,-1155.92 384.28,-1153.68 376,-1152 250.46,-1126.47 196.91,-1186.6 90,-1116 51.77,-1090.76 38,-1072.81 38,-1027 38,-1027 38,-1027 38,-449 38,-408.55 37.85,-395.63 57,-360 62.71,-349.37 71.2,-339.43 79.66,-331.1"/>
<polygon fill="grey" stroke="grey" stroke-width="2" points="82.12,-333.6 87.03,-324.21 77.33,-328.48 82.12,-333.6"/>
</g>
<!-- 10 -->
<g id="node11" class="node">
<title>10</title>
<path fill="none" stroke="#56d8a9" stroke-width="2" d="M140,-396C140,-396 78,-396 78,-396 72,-396 66,-390 66,-384 66,-384 66,-372 66,-372 66,-366 72,-360 78,-360 78,-360 140,-360 140,-360 146,-360 152,-366 152,-372 152,-372 152,-384 152,-384 152,-390 146,-396 140,-396"/>
<text text-anchor="middle" x="109" y="-381" font-family="sans" font-size="10.00">secondextract</text>
<text text-anchor="middle" x="109" y="-370" font-family="sans" font-size="10.00">vartype2: SNP</text>
</g>
<!-- 4&#45;&gt;10 -->
<g id="edge16" class="edge">
<title>4&#45;&gt;10</title>
<path fill="none" stroke="grey" stroke-width="2" d="M401.3,-1158.29C393.06,-1155.99 384.26,-1153.73 376,-1152 318.91,-1140.02 159.76,-1154.57 116,-1116 85.27,-1088.91 92,-1067.97 92,-1027 92,-1027 92,-1027 92,-521 92,-480.93 98.76,-434.95 103.75,-406.43"/>
<polygon fill="grey" stroke="grey" stroke-width="2" points="107.23,-406.87 105.56,-396.41 100.34,-405.63 107.23,-406.87"/>
</g>
<!-- 11 -->
<g id="node12" class="node">
<title>11</title>
<path fill="none" stroke="#61d856" stroke-width="2" d="M258,-468C258,-468 216,-468 216,-468 210,-468 204,-462 204,-456 204,-456 204,-444 204,-444 204,-438 210,-432 216,-432 216,-432 258,-432 258,-432 264,-432 270,-438 270,-444 270,-444 270,-456 270,-456 270,-462 264,-468 258,-468"/>
<text text-anchor="middle" x="237" y="-447.5" font-family="sans" font-size="10.00">secondvcf</text>
</g>
<!-- 4&#45;&gt;11 -->
<g id="edge18" class="edge">
<title>4&#45;&gt;11</title>
<path fill="none" stroke="grey" stroke-width="2" d="M401.19,-1158.77C392.96,-1156.45 384.19,-1154.07 376,-1152 304.49,-1133.94 272.44,-1161 214,-1116 178.72,-1088.83 168,-1071.53 168,-1027 168,-1027 168,-1027 168,-593 168,-548.48 195.78,-503.29 216.08,-476.2"/>
<polygon fill="grey" stroke="grey" stroke-width="2" points="219.02,-478.12 222.37,-468.07 213.48,-473.84 219.02,-478.12"/>
</g>
<!-- 12 -->
<g id="node13" class="node">
<title>12</title>
<path fill="none" stroke="#d86656" stroke-width="2" d="M341.5,-540C341.5,-540 288.5,-540 288.5,-540 282.5,-540 276.5,-534 276.5,-528 276.5,-528 276.5,-516 276.5,-516 276.5,-510 282.5,-504 288.5,-504 288.5,-504 341.5,-504 341.5,-504 347.5,-504 353.5,-510 353.5,-516 353.5,-516 353.5,-528 353.5,-528 353.5,-534 347.5,-540 341.5,-540"/>
<text text-anchor="middle" x="315" y="-519.5" font-family="sans" font-size="10.00">applyrecalib</text>
</g>
<!-- 4&#45;&gt;12 -->
<g id="edge20" class="edge">
<title>4&#45;&gt;12</title>
<path fill="none" stroke="grey" stroke-width="2" d="M401.49,-1159.19C348.88,-1144.2 254.48,-1117.2 253,-1116 218.31,-1087.75 206,-1071.73 206,-1027 206,-1027 206,-1027 206,-665 206,-614.93 249.17,-571.64 281.17,-546.43"/>
<polygon fill="grey" stroke="grey" stroke-width="2" points="283.62,-548.96 289.44,-540.11 279.37,-543.4 283.62,-548.96"/>
</g>
<!-- 13 -->
<g id="node14" class="node">
<title>13</title>
<path fill="none" stroke="#5692d8" stroke-width="2" d="M344.5,-612C344.5,-612 295.5,-612 295.5,-612 289.5,-612 283.5,-606 283.5,-600 283.5,-600 283.5,-588 283.5,-588 283.5,-582 289.5,-576 295.5,-576 295.5,-576 344.5,-576 344.5,-576 350.5,-576 356.5,-582 356.5,-588 356.5,-588 356.5,-600 356.5,-600 356.5,-606 350.5,-612 344.5,-612"/>
<text text-anchor="middle" x="320" y="-591.5" font-family="sans" font-size="10.00">baserecalib</text>
</g>
<!-- 4&#45;&gt;13 -->
<g id="edge23" class="edge">
<title>4&#45;&gt;13</title>
<path fill="none" stroke="grey" stroke-width="2" d="M401.24,-1159.17C364.5,-1148.26 309.6,-1130.3 293,-1116 258.79,-1086.52 244,-1072.15 244,-1027 244,-1027 244,-1027 244,-737 244,-691.64 274.52,-646.75 296.88,-619.95"/>
<polygon fill="grey" stroke="grey" stroke-width="2" points="299.64,-622.09 303.51,-612.23 294.34,-617.53 299.64,-622.09"/>
</g>
<!-- 14 -->
<g id="node15" class="node">
<title>14</title>
<path fill="none" stroke="#d6d856" stroke-width="2" d="M515.5,-684C515.5,-684 484.5,-684 484.5,-684 478.5,-684 472.5,-678 472.5,-672 472.5,-672 472.5,-660 472.5,-660 472.5,-654 478.5,-648 484.5,-648 484.5,-648 515.5,-648 515.5,-648 521.5,-648 527.5,-654 527.5,-660 527.5,-660 527.5,-672 527.5,-672 527.5,-678 521.5,-684 515.5,-684"/>
<text text-anchor="middle" x="500" y="-663.5" font-family="sans" font-size="10.00">exclude</text>
</g>
<!-- 4&#45;&gt;14 -->
<g id="edge27" class="edge">
<title>4&#45;&gt;14</title>
<path fill="none" stroke="grey" stroke-width="2" d="M451.49,-1151.8C459.86,-1141.86 469.9,-1128.82 477,-1116 543.05,-996.67 559.07,-962.28 583,-828 592.12,-776.81 566.94,-763.2 538,-720 531.95,-710.97 525.09,-701.26 518.89,-692.65"/>
<polygon fill="grey" stroke="grey" stroke-width="2" points="521.66,-690.51 512.95,-684.47 515.99,-694.62 521.66,-690.51"/>
</g>
<!-- 15 -->
<g id="node16" class="node">
<title>15</title>
<path fill="none" stroke="#56d8c1" stroke-width="2" d="M517,-756C517,-756 483,-756 483,-756 477,-756 471,-750 471,-744 471,-744 471,-732 471,-732 471,-726 477,-720 483,-720 483,-720 517,-720 517,-720 523,-720 529,-726 529,-732 529,-732 529,-744 529,-744 529,-750 523,-756 517,-756"/>
<text text-anchor="middle" x="500" y="-735.5" font-family="sans" font-size="10.00">firstfilter</text>
</g>
<!-- 4&#45;&gt;15 -->
<g id="edge29" class="edge">
<title>4&#45;&gt;15</title>
<path fill="none" stroke="grey" stroke-width="2" d="M432.16,-1151.61C426.6,-1124.94 417,-1072.27 417,-1027 417,-1027 417,-1027 417,-953 417,-880.88 458.49,-803.77 482.8,-764.78"/>
<polygon fill="grey" stroke="grey" stroke-width="2" points="485.87,-766.47 488.28,-756.15 479.96,-762.71 485.87,-766.47"/>
</g>
<!-- 16 -->
<g id="node17" class="node">
<title>16</title>
<path fill="none" stroke="#56d863" stroke-width="2" d="M562,-828C562,-828 506,-828 506,-828 500,-828 494,-822 494,-816 494,-816 494,-804 494,-804 494,-798 500,-792 506,-792 506,-792 562,-792 562,-792 568,-792 574,-798 574,-804 574,-804 574,-816 574,-816 574,-822 568,-828 562,-828"/>
<text text-anchor="middle" x="534" y="-813" font-family="sans" font-size="10.00">firstextract</text>
<text text-anchor="middle" x="534" y="-802" font-family="sans" font-size="10.00">vartype: SNP</text>
</g>
<!-- 4&#45;&gt;16 -->
<g id="edge31" class="edge">
<title>4&#45;&gt;16</title>
<path fill="none" stroke="grey" stroke-width="2" d="M444,-1151.58C448.5,-1141.36 454,-1128.11 458,-1116 491.21,-1015.4 517.75,-891.99 528.65,-838.21"/>
<polygon fill="grey" stroke="grey" stroke-width="2" points="532.14,-838.61 530.67,-828.12 525.27,-837.23 532.14,-838.61"/>
</g>
<!-- 17 -->
<g id="node18" class="node">
<title>17</title>
<path fill="none" stroke="#56d8d0" stroke-width="2" d="M487,-900C487,-900 457,-900 457,-900 451,-900 445,-894 445,-888 445,-888 445,-876 445,-876 445,-870 451,-864 457,-864 457,-864 487,-864 487,-864 493,-864 499,-870 499,-876 499,-876 499,-888 499,-888 499,-894 493,-900 487,-900"/>
<text text-anchor="middle" x="472" y="-879.5" font-family="sans" font-size="10.00">firstvcf</text>
</g>
<!-- 4&#45;&gt;17 -->
<g id="edge33" class="edge">
<title>4&#45;&gt;17</title>
<path fill="none" stroke="grey" stroke-width="2" d="M438.14,-1151.97C444.16,-1104.19 461.22,-968.62 468.57,-910.27"/>
<polygon fill="grey" stroke="grey" stroke-width="2" points="472.05,-910.67 469.82,-900.31 465.1,-909.79 472.05,-910.67"/>
</g>
<!-- 18 -->
<g id="node19" class="node">
<title>18</title>
<path fill="none" stroke="#70d856" stroke-width="2" d="M681,-972C681,-972 591,-972 591,-972 585,-972 579,-966 579,-960 579,-960 579,-948 579,-948 579,-942 585,-936 591,-936 591,-936 681,-936 681,-936 687,-936 693,-942 693,-948 693,-948 693,-960 693,-960 693,-966 687,-972 681,-972"/>
<text text-anchor="middle" x="636" y="-951.5" font-family="sans" font-size="10.00">realign_postprocess</text>
</g>
<!-- 4&#45;&gt;18 -->
<g id="edge35" class="edge">
<title>4&#45;&gt;18</title>
<path fill="none" stroke="grey" stroke-width="2" d="M470.67,-1154.82C498.06,-1143.15 533.5,-1126.81 545,-1116 566.5,-1095.79 604.05,-1021.58 623.51,-981.35"/>
<polygon fill="grey" stroke="grey" stroke-width="2" points="626.76,-982.67 627.94,-972.14 620.45,-979.63 626.76,-982.67"/>
</g>
<!-- 19 -->
<g id="node20" class="node">
<title>19</title>
<path fill="none" stroke="#567bd8" stroke-width="2" d="M665,-1044C665,-1044 635,-1044 635,-1044 629,-1044 623,-1038 623,-1032 623,-1032 623,-1020 623,-1020 623,-1014 629,-1008 635,-1008 635,-1008 665,-1008 665,-1008 671,-1008 677,-1014 677,-1020 677,-1020 677,-1032 677,-1032 677,-1038 671,-1044 665,-1044"/>
<text text-anchor="middle" x="650" y="-1023.5" font-family="sans" font-size="10.00">realign</text>
</g>
<!-- 4&#45;&gt;19 -->
<g id="edge38" class="edge">
<title>4&#45;&gt;19</title>
<path fill="none" stroke="grey" stroke-width="2" d="M470.65,-1156.46C474.81,-1154.96 479,-1153.44 483,-1152 527.43,-1135.97 544.99,-1144.04 583,-1116 605.71,-1099.25 624.29,-1072.69 636.08,-1052.93"/>
<polygon fill="grey" stroke="grey" stroke-width="2" points="639.2,-1054.54 641.16,-1044.13 633.13,-1051.04 639.2,-1054.54"/>
</g>
<!-- 25 -->
<g id="node26" class="node">
<title>25</title>
<path fill="none" stroke="#d8b456" stroke-width="2" d="M680.5,-1116C680.5,-1116 647.5,-1116 647.5,-1116 641.5,-1116 635.5,-1110 635.5,-1104 635.5,-1104 635.5,-1092 635.5,-1092 635.5,-1086 641.5,-1080 647.5,-1080 647.5,-1080 680.5,-1080 680.5,-1080 686.5,-1080 692.5,-1086 692.5,-1092 692.5,-1092 692.5,-1104 692.5,-1104 692.5,-1110 686.5,-1116 680.5,-1116"/>
<text text-anchor="middle" x="664" y="-1095.5" font-family="sans" font-size="10.00">indexref</text>
</g>
<!-- 4&#45;&gt;25 -->
<g id="edge45" class="edge">
<title>4&#45;&gt;25</title>
<path fill="none" stroke="grey" stroke-width="2" d="M470.53,-1156.1C474.71,-1154.66 478.94,-1153.26 483,-1152 543.53,-1133.2 560.75,-1135.69 621,-1116 622.63,-1115.47 624.28,-1114.91 625.94,-1114.33"/>
<polygon fill="grey" stroke="grey" stroke-width="2" points="627.31,-1117.55 635.5,-1110.83 624.9,-1110.98 627.31,-1117.55"/>
</g>
<!-- 26 -->
<g id="node27" class="node">
<title>26</title>
<path fill="none" stroke="#d6d856" stroke-width="2" d="M335.5,-684C335.5,-684 304.5,-684 304.5,-684 298.5,-684 292.5,-678 292.5,-672 292.5,-672 292.5,-660 292.5,-660 292.5,-654 298.5,-648 304.5,-648 304.5,-648 335.5,-648 335.5,-648 341.5,-648 347.5,-654 347.5,-660 347.5,-660 347.5,-672 347.5,-672 347.5,-678 341.5,-684 335.5,-684"/>
<text text-anchor="middle" x="320" y="-663.5" font-family="sans" font-size="10.00">exclude</text>
</g>
<!-- 4&#45;&gt;26 -->
<g id="edge46" class="edge">
<title>4&#45;&gt;26</title>
<path fill="none" stroke="grey" stroke-width="2" d="M401.49,-1157.37C379.58,-1148.65 351.73,-1134.95 332,-1116 299.27,-1084.58 282,-1072.37 282,-1027 282,-1027 282,-1027 282,-809 282,-767.63 297.23,-721.72 308.41,-693.61"/>
<polygon fill="grey" stroke="grey" stroke-width="2" points="311.76,-694.67 312.31,-684.09 305.28,-692.02 311.76,-694.67"/>
</g>
<!-- 27 -->
<g id="node28" class="node">
<title>27</title>
<path fill="none" stroke="#56d8c1" stroke-width="2" d="M356,-756C356,-756 322,-756 322,-756 316,-756 310,-750 310,-744 310,-744 310,-732 310,-732 310,-726 316,-720 322,-720 322,-720 356,-720 356,-720 362,-720 368,-726 368,-732 368,-732 368,-744 368,-744 368,-750 362,-756 356,-756"/>
<text text-anchor="middle" x="339" y="-735.5" font-family="sans" font-size="10.00">firstfilter</text>
</g>
<!-- 4&#45;&gt;27 -->
<g id="edge48" class="edge">
<title>4&#45;&gt;27</title>
<path fill="none" stroke="grey" stroke-width="2" d="M408.22,-1151.88C373.9,-1128.35 320,-1082.55 320,-1027 320,-1027 320,-1027 320,-881 320,-840.86 327.55,-794.9 333.13,-766.4"/>
<polygon fill="grey" stroke="grey" stroke-width="2" points="336.61,-766.88 335.16,-756.39 329.74,-765.5 336.61,-766.88"/>
</g>
<!-- 28 -->
<g id="node29" class="node">
<title>28</title>
<path fill="none" stroke="#56d863" stroke-width="2" d="M425.5,-828C425.5,-828 360.5,-828 360.5,-828 354.5,-828 348.5,-822 348.5,-816 348.5,-816 348.5,-804 348.5,-804 348.5,-798 354.5,-792 360.5,-792 360.5,-792 425.5,-792 425.5,-792 431.5,-792 437.5,-798 437.5,-804 437.5,-804 437.5,-816 437.5,-816 437.5,-822 431.5,-828 425.5,-828"/>
<text text-anchor="middle" x="393" y="-813" font-family="sans" font-size="10.00">firstextract</text>
<text text-anchor="middle" x="393" y="-802" font-family="sans" font-size="10.00">vartype: INDEL</text>
</g>
<!-- 4&#45;&gt;28 -->
<g id="edge50" class="edge">
<title>4&#45;&gt;28</title>
<path fill="none" stroke="grey" stroke-width="2" d="M423.33,-1151.57C416.53,-1141.56 408.45,-1128.52 403,-1116 386.66,-1078.43 379,-1067.97 379,-1027 379,-1027 379,-1027 379,-953 379,-913.02 384.56,-867.02 388.68,-838.47"/>
<polygon fill="grey" stroke="grey" stroke-width="2" points="392.16,-838.84 390.17,-828.43 385.24,-837.81 392.16,-838.84"/>
</g>
<!-- 30 -->
<g id="node31" class="node">
<title>30</title>
<path fill="none" stroke="#d8a456" stroke-width="2" d="M725,-252C725,-252 689,-252 689,-252 683,-252 677,-246 677,-240 677,-240 677,-228 677,-228 677,-222 683,-216 689,-216 689,-216 725,-216 725,-216 731,-216 737,-222 737,-228 737,-228 737,-240 737,-240 737,-246 731,-252 725,-252"/>
<text text-anchor="middle" x="707" y="-231.5" font-family="sans" font-size="10.00">annotate</text>
</g>
<!-- 4&#45;&gt;30 -->
<g id="edge53" class="edge">
<title>4&#45;&gt;30</title>
<path fill="none" stroke="grey" stroke-width="2" d="M470.65,-1155.53C474.77,-1154.21 478.95,-1152.99 483,-1152 600.6,-1123.25 654.62,-1186.55 753,-1116 788.86,-1090.29 797,-1071.13 797,-1027 797,-1027 797,-1027 797,-377 797,-329.71 760.96,-285.41 734.49,-259.25"/>
<polygon fill="grey" stroke="grey" stroke-width="2" points="736.62,-256.44 726.97,-252.05 731.77,-261.49 736.62,-256.44"/>
</g>
<!-- 33 -->
<g id="node34" class="node">
<title>33</title>
<path fill="none" stroke="#bed856" stroke-width="2" d="M732,-324C732,-324 682,-324 682,-324 676,-324 670,-318 670,-312 670,-312 670,-300 670,-300 670,-294 676,-288 682,-288 682,-288 732,-288 732,-288 738,-288 744,-294 744,-300 744,-300 744,-312 744,-312 744,-318 738,-324 732,-324"/>
<text text-anchor="middle" x="707" y="-303.5" font-family="sans" font-size="10.00">secondfilter</text>
</g>
<!-- 4&#45;&gt;33 -->
<g id="edge60" class="edge">
<title>4&#45;&gt;33</title>
<path fill="none" stroke="grey" stroke-width="2" d="M470.67,-1155.59C474.79,-1154.25 478.96,-1153.02 483,-1152 588.43,-1125.37 640.23,-1184.1 725,-1116 758.01,-1089.48 759,-1069.34 759,-1027 759,-1027 759,-1027 759,-449 759,-408.55 755.14,-397.51 740,-360 736.25,-350.7 730.89,-341.2 725.59,-332.86"/>
<polygon fill="grey" stroke="grey" stroke-width="2" points="728.38,-330.72 719.93,-324.32 722.54,-334.59 728.38,-330.72"/>
</g>
<!-- 34 -->
<g id="node35" class="node">
<title>34</title>
<path fill="none" stroke="#56d8a9" stroke-width="2" d="M718.5,-396C718.5,-396 647.5,-396 647.5,-396 641.5,-396 635.5,-390 635.5,-384 635.5,-384 635.5,-372 635.5,-372 635.5,-366 641.5,-360 647.5,-360 647.5,-360 718.5,-360 718.5,-360 724.5,-360 730.5,-366 730.5,-372 730.5,-372 730.5,-384 730.5,-384 730.5,-390 724.5,-396 718.5,-396"/>
<text text-anchor="middle" x="683" y="-381" font-family="sans" font-size="10.00">secondextract</text>
<text text-anchor="middle" x="683" y="-370" font-family="sans" font-size="10.00">vartype2: INDEL</text>
</g>
<!-- 4&#45;&gt;34 -->
<g id="edge62" class="edge">
<title>4&#45;&gt;34</title>
<path fill="none" stroke="grey" stroke-width="2" d="M470.68,-1155.65C474.8,-1154.3 478.97,-1153.05 483,-1152 578.45,-1127.12 630.62,-1184.08 702,-1116 731.27,-1088.09 721,-1067.45 721,-1027 721,-1027 721,-1027 721,-521 721,-479.63 705.77,-433.72 694.59,-405.61"/>
<polygon fill="grey" stroke="grey" stroke-width="2" points="697.72,-404.02 690.69,-396.09 691.24,-406.67 697.72,-404.02"/>
</g>
<!-- 5 -->
<g id="node6" class="node">
<title>5</title>
<path fill="none" stroke="#56c9d8" stroke-width="2" d="M470,-1260C470,-1260 426,-1260 426,-1260 420,-1260 414,-1254 414,-1248 414,-1248 414,-1236 414,-1236 414,-1230 420,-1224 426,-1224 426,-1224 470,-1224 470,-1224 476,-1224 482,-1230 482,-1236 482,-1236 482,-1248 482,-1248 482,-1254 476,-1260 470,-1260"/>
<text text-anchor="middle" x="448" y="-1239.5" font-family="sans" font-size="10.00">prepareref</text>
</g>
<!-- 5&#45;&gt;4 -->
<g id="edge9" class="edge">
<title>5&#45;&gt;4</title>
<path fill="none" stroke="grey" stroke-width="2" d="M445.03,-1223.7C443.71,-1215.98 442.12,-1206.71 440.65,-1198.11"/>
<polygon fill="grey" stroke="grey" stroke-width="2" points="444.07,-1197.37 438.93,-1188.1 437.17,-1198.55 444.07,-1197.37"/>
</g>
<!-- 6 -->
<g id="node7" class="node">
<title>6</title>
<path fill="none" stroke="#56d873" stroke-width="2" d="M508,-1332C508,-1332 450,-1332 450,-1332 444,-1332 438,-1326 438,-1320 438,-1320 438,-1308 438,-1308 438,-1302 444,-1296 450,-1296 450,-1296 508,-1296 508,-1296 514,-1296 520,-1302 520,-1308 520,-1308 520,-1320 520,-1320 520,-1326 514,-1332 508,-1332"/>
<text text-anchor="middle" x="479" y="-1311.5" font-family="sans" font-size="10.00">recgionconfig</text>
</g>
<!-- 6&#45;&gt;5 -->
<g id="edge10" class="edge">
<title>6&#45;&gt;5</title>
<path fill="none" stroke="grey" stroke-width="2" d="M471.34,-1295.7C467.81,-1287.73 463.54,-1278.1 459.63,-1269.26"/>
<polygon fill="grey" stroke="grey" stroke-width="2" points="462.82,-1267.83 455.57,-1260.1 456.42,-1270.67 462.82,-1267.83"/>
</g>
<!-- 7 -->
<g id="node8" class="node">
<title>7</title>
<path fill="none" stroke="#56b9d8" stroke-width="2" d="M355,-1188C355,-1188 261,-1188 261,-1188 255,-1188 249,-1182 249,-1176 249,-1176 249,-1164 249,-1164 249,-1158 255,-1152 261,-1152 261,-1152 355,-1152 355,-1152 361,-1152 367,-1158 367,-1164 367,-1164 367,-1176 367,-1176 367,-1182 361,-1188 355,-1188"/>
<text text-anchor="middle" x="308" y="-1167.5" font-family="sans" font-size="10.00">variant_coords_anno</text>
</g>
<!-- 6&#45;&gt;7 -->
<g id="edge12" class="edge">
<title>6&#45;&gt;7</title>
<path fill="none" stroke="grey" stroke-width="2" d="M453.36,-1295.92C438.81,-1285.92 420.48,-1272.77 405,-1260 387.06,-1245.19 384.1,-1239.77 367,-1224 356.62,-1214.42 345.08,-1204.01 334.99,-1194.97"/>
<polygon fill="grey" stroke="grey" stroke-width="2" points="337.04,-1192.11 327.25,-1188.06 332.37,-1197.33 337.04,-1192.11"/>
</g>
<!-- 8 -->
<g id="node9" class="node">
<title>8</title>
<path fill="none" stroke="#d8cb56" stroke-width="2" d="M345.5,-1260C345.5,-1260 270.5,-1260 270.5,-1260 264.5,-1260 258.5,-1254 258.5,-1248 258.5,-1248 258.5,-1236 258.5,-1236 258.5,-1230 264.5,-1224 270.5,-1224 270.5,-1224 345.5,-1224 345.5,-1224 351.5,-1224 357.5,-1230 357.5,-1236 357.5,-1236 357.5,-1248 357.5,-1248 357.5,-1254 351.5,-1260 345.5,-1260"/>
<text text-anchor="middle" x="308" y="-1245" font-family="sans" font-size="10.00">variantrefextract</text>
<text text-anchor="middle" x="308" y="-1234" font-family="sans" font-size="10.00">vartype2: SNP</text>
</g>
<!-- 6&#45;&gt;8 -->
<g id="edge13" class="edge">
<title>6&#45;&gt;8</title>
<path fill="none" stroke="grey" stroke-width="2" d="M437.61,-1296.05C413.94,-1286.37 384.07,-1274.14 358.97,-1263.86"/>
<polygon fill="grey" stroke="grey" stroke-width="2" points="360.19,-1260.58 349.61,-1260.03 357.53,-1267.06 360.19,-1260.58"/>
</g>
<!-- 21 -->
<g id="node22" class="node">
<title>21</title>
<path fill="none" stroke="#d88d56" stroke-width="2" d="M588.5,-1188C588.5,-1188 503.5,-1188 503.5,-1188 497.5,-1188 491.5,-1182 491.5,-1176 491.5,-1176 491.5,-1164 491.5,-1164 491.5,-1158 497.5,-1152 503.5,-1152 503.5,-1152 588.5,-1152 588.5,-1152 594.5,-1152 600.5,-1158 600.5,-1164 600.5,-1164 600.5,-1176 600.5,-1176 600.5,-1182 594.5,-1188 588.5,-1188"/>
<text text-anchor="middle" x="546" y="-1167.5" font-family="sans" font-size="10.00">extractseqatregion</text>
</g>
<!-- 6&#45;&gt;21 -->
<g id="edge42" class="edge">
<title>6&#45;&gt;21</title>
<path fill="none" stroke="grey" stroke-width="2" d="M487.08,-1295.87C498.65,-1271.35 520.03,-1226.03 533.61,-1197.26"/>
<polygon fill="grey" stroke="grey" stroke-width="2" points="536.79,-1198.73 537.89,-1188.19 530.46,-1195.74 536.79,-1198.73"/>
</g>
<!-- 31 -->
<g id="node32" class="node">
<title>31</title>
<path fill="none" stroke="#56b9d8" stroke-width="2" d="M725,-1188C725,-1188 631,-1188 631,-1188 625,-1188 619,-1182 619,-1176 619,-1176 619,-1164 619,-1164 619,-1158 625,-1152 631,-1152 631,-1152 725,-1152 725,-1152 731,-1152 737,-1158 737,-1164 737,-1164 737,-1176 737,-1176 737,-1182 731,-1188 725,-1188"/>
<text text-anchor="middle" x="678" y="-1167.5" font-family="sans" font-size="10.00">variant_coords_anno</text>
</g>
<!-- 6&#45;&gt;31 -->
<g id="edge58" class="edge">
<title>6&#45;&gt;31</title>
<path fill="none" stroke="grey" stroke-width="2" d="M520.21,-1310.27C557.87,-1305.64 612.77,-1293.23 647,-1260 663.82,-1243.67 671.52,-1217.75 675.04,-1198.08"/>
<polygon fill="grey" stroke="grey" stroke-width="2" points="678.51,-1198.59 676.57,-1188.18 671.59,-1197.53 678.51,-1198.59"/>
</g>
<!-- 32 -->
<g id="node33" class="node">
<title>32</title>
<path fill="none" stroke="#d8cb56" stroke-width="2" d="M625.5,-1260C625.5,-1260 550.5,-1260 550.5,-1260 544.5,-1260 538.5,-1254 538.5,-1248 538.5,-1248 538.5,-1236 538.5,-1236 538.5,-1230 544.5,-1224 550.5,-1224 550.5,-1224 625.5,-1224 625.5,-1224 631.5,-1224 637.5,-1230 637.5,-1236 637.5,-1236 637.5,-1248 637.5,-1248 637.5,-1254 631.5,-1260 625.5,-1260"/>
<text text-anchor="middle" x="588" y="-1245" font-family="sans" font-size="10.00">variantrefextract</text>
<text text-anchor="middle" x="588" y="-1234" font-family="sans" font-size="10.00">vartype2: INDEL</text>
</g>
<!-- 6&#45;&gt;32 -->
<g id="edge59" class="edge">
<title>6&#45;&gt;32</title>
<path fill="none" stroke="grey" stroke-width="2" d="M505.66,-1295.88C519.78,-1286.81 537.31,-1275.55 552.56,-1265.76"/>
<polygon fill="grey" stroke="grey" stroke-width="2" points="554.71,-1268.54 561.23,-1260.19 550.93,-1262.65 554.71,-1268.54"/>
</g>
<!-- 7&#45;&gt;3 -->
<g id="edge6" class="edge">
<title>7&#45;&gt;3</title>
<path fill="none" stroke="grey" stroke-width="2" d="M248.89,-1162.91C182,-1155.01 78.28,-1139.42 47,-1116 11.19,-1089.19 0,-1071.73 0,-1027 0,-1027 0,-1027 0,-377 0,-306.14 87.05,-265.16 140.08,-246.77"/>
<polygon fill="grey" stroke="grey" stroke-width="2" points="141.5,-249.99 149.87,-243.5 139.28,-243.35 141.5,-249.99"/>
</g>
<!-- 8&#45;&gt;7 -->
<g id="edge11" class="edge">
<title>8&#45;&gt;7</title>
<path fill="none" stroke="grey" stroke-width="2" d="M308,-1223.7C308,-1215.98 308,-1206.71 308,-1198.11"/>
<polygon fill="grey" stroke="grey" stroke-width="2" points="311.5,-1198.1 308,-1188.1 304.5,-1198.1 311.5,-1198.1"/>
</g>
<!-- 9&#45;&gt;3 -->
<g id="edge7" class="edge">
<title>9&#45;&gt;3</title>
<path fill="none" stroke="grey" stroke-width="2" d="M126.55,-287.7C135.23,-279.14 145.86,-268.66 155.35,-259.3"/>
<polygon fill="grey" stroke="grey" stroke-width="2" points="157.99,-261.62 162.65,-252.1 153.07,-256.63 157.99,-261.62"/>
</g>
<!-- 10&#45;&gt;9 -->
<g id="edge15" class="edge">
<title>10&#45;&gt;9</title>
<path fill="none" stroke="grey" stroke-width="2" d="M109,-359.7C109,-351.98 109,-342.71 109,-334.11"/>
<polygon fill="grey" stroke="grey" stroke-width="2" points="112.5,-334.1 109,-324.1 105.5,-334.1 112.5,-334.1"/>
</g>
<!-- 11&#45;&gt;10 -->
<g id="edge17" class="edge">
<title>11&#45;&gt;10</title>
<path fill="none" stroke="grey" stroke-width="2" d="M205.69,-431.88C188.8,-422.64 167.75,-411.13 149.62,-401.21"/>
<polygon fill="grey" stroke="grey" stroke-width="2" points="150.89,-397.92 140.43,-396.19 147.53,-404.06 150.89,-397.92"/>
</g>
<!-- 11&#45;&gt;34 -->
<g id="edge63" class="edge">
<title>11&#45;&gt;34</title>
<path fill="none" stroke="grey" stroke-width="2" d="M270.16,-443.8C345.54,-431.96 530.54,-402.93 625.19,-388.07"/>
<polygon fill="grey" stroke="grey" stroke-width="2" points="625.83,-391.52 635.16,-386.51 624.74,-384.6 625.83,-391.52"/>
</g>
<!-- 12&#45;&gt;3 -->
<g id="edge8" class="edge">
<title>12&#45;&gt;3</title>
<path fill="none" stroke="grey" stroke-width="2" d="M308.51,-503.76C301.59,-485.71 290.13,-456.6 279,-432 250.89,-369.9 213.98,-298.87 194.12,-261.38"/>
<polygon fill="grey" stroke="grey" stroke-width="2" points="197,-259.35 189.22,-252.16 190.82,-262.64 197,-259.35"/>
</g>
<!-- 12&#45;&gt;11 -->
<g id="edge19" class="edge">
<title>12&#45;&gt;11</title>
<path fill="none" stroke="grey" stroke-width="2" d="M295.72,-503.7C286.08,-495.05 274.27,-484.45 263.77,-475.03"/>
<polygon fill="grey" stroke="grey" stroke-width="2" points="265.84,-472.18 256.06,-468.1 261.16,-477.39 265.84,-472.18"/>
</g>
<!-- 12&#45;&gt;30 -->
<g id="edge56" class="edge">
<title>12&#45;&gt;30</title>
<path fill="none" stroke="grey" stroke-width="2" d="M338.35,-503.97C405.32,-455.1 598.19,-314.39 674.94,-258.39"/>
<polygon fill="grey" stroke="grey" stroke-width="2" points="677.26,-261.03 683.28,-252.31 673.14,-255.37 677.26,-261.03"/>
</g>
<!-- 13&#45;&gt;12 -->
<g id="edge21" class="edge">
<title>13&#45;&gt;12</title>
<path fill="none" stroke="grey" stroke-width="2" d="M318.76,-575.7C318.21,-567.98 317.55,-558.71 316.94,-550.11"/>
<polygon fill="grey" stroke="grey" stroke-width="2" points="320.43,-549.83 316.22,-540.1 313.44,-550.33 320.43,-549.83"/>
</g>
<!-- 14&#45;&gt;13 -->
<g id="edge24" class="edge">
<title>14&#45;&gt;13</title>
<path fill="none" stroke="grey" stroke-width="2" d="M472.27,-654.22C444.09,-643.26 399.92,-626.08 366.4,-613.04"/>
<polygon fill="grey" stroke="grey" stroke-width="2" points="367.4,-609.68 356.81,-609.32 364.86,-616.2 367.4,-609.68"/>
</g>
<!-- 15&#45;&gt;14 -->
<g id="edge28" class="edge">
<title>15&#45;&gt;14</title>
<path fill="none" stroke="grey" stroke-width="2" d="M500,-719.7C500,-711.98 500,-702.71 500,-694.11"/>
<polygon fill="grey" stroke="grey" stroke-width="2" points="503.5,-694.1 500,-684.1 496.5,-694.1 503.5,-694.1"/>
</g>
<!-- 16&#45;&gt;15 -->
<g id="edge30" class="edge">
<title>16&#45;&gt;15</title>
<path fill="none" stroke="grey" stroke-width="2" d="M525.6,-791.7C521.73,-783.73 517.05,-774.1 512.76,-765.26"/>
<polygon fill="grey" stroke="grey" stroke-width="2" points="515.83,-763.57 508.31,-756.1 509.53,-766.63 515.83,-763.57"/>
</g>
<!-- 17&#45;&gt;16 -->
<g id="edge32" class="edge">
<title>17&#45;&gt;16</title>
<path fill="none" stroke="grey" stroke-width="2" d="M487.33,-863.7C494.76,-855.3 503.82,-845.07 511.98,-835.86"/>
<polygon fill="grey" stroke="grey" stroke-width="2" points="514.84,-837.91 518.85,-828.1 509.6,-833.27 514.84,-837.91"/>
</g>
<!-- 17&#45;&gt;28 -->
<g id="edge51" class="edge">
<title>17&#45;&gt;28</title>
<path fill="none" stroke="grey" stroke-width="2" d="M452.47,-863.7C442.62,-854.97 430.51,-844.24 419.8,-834.75"/>
<polygon fill="grey" stroke="grey" stroke-width="2" points="422.11,-832.12 412.3,-828.1 417.47,-837.36 422.11,-832.12"/>
</g>
<!-- 18&#45;&gt;12 -->
<g id="edge22" class="edge">
<title>18&#45;&gt;12</title>
<path fill="none" stroke="grey" stroke-width="2" d="M644.5,-935.99C656.77,-909.82 678,-857.79 678,-811 678,-811 678,-811 678,-665 678,-598.25 462.45,-550.06 363.55,-531.45"/>
<polygon fill="grey" stroke="grey" stroke-width="2" points="363.97,-527.97 353.5,-529.59 362.7,-534.85 363.97,-527.97"/>
</g>
<!-- 18&#45;&gt;13 -->
<g id="edge26" class="edge">
<title>18&#45;&gt;13</title>
<path fill="none" stroke="grey" stroke-width="2" d="M636.79,-935.96C637.96,-909.3 640,-856.13 640,-811 640,-811 640,-811 640,-737 640,-618.9 455.65,-598.27 366.8,-595.19"/>
<polygon fill="grey" stroke="grey" stroke-width="2" points="366.8,-591.69 356.71,-594.9 366.6,-598.69 366.8,-591.69"/>
</g>
<!-- 18&#45;&gt;17 -->
<g id="edge34" class="edge">
<title>18&#45;&gt;17</title>
<path fill="none" stroke="grey" stroke-width="2" d="M595.88,-935.88C569.31,-924.53 534.72,-909.77 508.84,-898.73"/>
<polygon fill="grey" stroke="grey" stroke-width="2" points="509.96,-895.4 499.39,-894.69 507.21,-901.84 509.96,-895.4"/>
</g>
<!-- 19&#45;&gt;18 -->
<g id="edge36" class="edge">
<title>19&#45;&gt;18</title>
<path fill="none" stroke="grey" stroke-width="2" d="M646.54,-1007.7C645,-999.98 643.14,-990.71 641.42,-982.11"/>
<polygon fill="grey" stroke="grey" stroke-width="2" points="644.81,-981.22 639.42,-972.1 637.95,-982.6 644.81,-981.22"/>
</g>
<!-- 20 -->
<g id="node21" class="node">
<title>20</title>
<path fill="none" stroke="#56d89a" stroke-width="2" d="M923,-1116C923,-1116 837,-1116 837,-1116 831,-1116 825,-1110 825,-1104 825,-1104 825,-1092 825,-1092 825,-1086 831,-1080 837,-1080 837,-1080 923,-1080 923,-1080 929,-1080 935,-1086 935,-1092 935,-1092 935,-1104 935,-1104 935,-1110 929,-1116 923,-1116"/>
<text text-anchor="middle" x="880" y="-1095.5" font-family="sans" font-size="10.00">filterextractedfasta</text>
</g>
<!-- 20&#45;&gt;19 -->
<g id="edge37" class="edge">
<title>20&#45;&gt;19</title>
<path fill="none" stroke="grey" stroke-width="2" d="M824.91,-1080.23C782.27,-1067.26 724.39,-1049.64 687.11,-1038.29"/>
<polygon fill="grey" stroke="grey" stroke-width="2" points="687.76,-1034.83 677.17,-1035.27 685.72,-1041.53 687.76,-1034.83"/>
</g>
<!-- 21&#45;&gt;20 -->
<g id="edge40" class="edge">
<title>21&#45;&gt;20</title>
<path fill="none" stroke="grey" stroke-width="2" d="M600.74,-1154.14C603.87,-1153.39 606.97,-1152.67 610,-1152 698.6,-1132.33 722.23,-1134.87 811,-1116 812.26,-1115.73 813.52,-1115.46 814.8,-1115.18"/>
<polygon fill="grey" stroke="grey" stroke-width="2" points="815.72,-1118.56 824.71,-1112.95 814.19,-1111.73 815.72,-1118.56"/>
</g>
<!-- 22 -->
<g id="node23" class="node">
<title>22</title>
<path fill="none" stroke="#d87d56" stroke-width="2" d="M781.5,-1260C781.5,-1260 706.5,-1260 706.5,-1260 700.5,-1260 694.5,-1254 694.5,-1248 694.5,-1248 694.5,-1236 694.5,-1236 694.5,-1230 700.5,-1224 706.5,-1224 706.5,-1224 781.5,-1224 781.5,-1224 787.5,-1224 793.5,-1230 793.5,-1236 793.5,-1236 793.5,-1248 793.5,-1248 793.5,-1254 787.5,-1260 781.5,-1260"/>
<text text-anchor="middle" x="744" y="-1239.5" font-family="sans" font-size="10.00">postalignprocess</text>
</g>
<!-- 22&#45;&gt;21 -->
<g id="edge41" class="edge">
<title>22&#45;&gt;21</title>
<path fill="none" stroke="grey" stroke-width="2" d="M695.82,-1223.97C668.15,-1214.19 633.22,-1201.84 604.05,-1191.52"/>
<polygon fill="grey" stroke="grey" stroke-width="2" points="604.99,-1188.14 594.4,-1188.11 602.66,-1194.74 604.99,-1188.14"/>
</g>
<!-- 23 -->
<g id="node24" class="node">
<title>23</title>
<path fill="none" stroke="#afd856" stroke-width="2" d="M759,-1332C759,-1332 729,-1332 729,-1332 723,-1332 717,-1326 717,-1320 717,-1320 717,-1308 717,-1308 717,-1302 723,-1296 729,-1296 729,-1296 759,-1296 759,-1296 765,-1296 771,-1302 771,-1308 771,-1308 771,-1320 771,-1320 771,-1326 765,-1332 759,-1332"/>
<text text-anchor="middle" x="744" y="-1311.5" font-family="sans" font-size="10.00">align</text>
</g>
<!-- 23&#45;&gt;22 -->
<g id="edge43" class="edge">
<title>23&#45;&gt;22</title>
<path fill="none" stroke="grey" stroke-width="2" d="M744,-1295.7C744,-1287.98 744,-1278.71 744,-1270.11"/>
<polygon fill="grey" stroke="grey" stroke-width="2" points="747.5,-1270.1 744,-1260.1 740.5,-1270.1 747.5,-1270.1"/>
</g>
<!-- 24 -->
<g id="node25" class="node">
<title>24</title>
<path fill="none" stroke="#56d88a" stroke-width="2" stroke-dasharray="5,2" d="M762.5,-1404C762.5,-1404 725.5,-1404 725.5,-1404 719.5,-1404 713.5,-1398 713.5,-1392 713.5,-1392 713.5,-1380 713.5,-1380 713.5,-1374 719.5,-1368 725.5,-1368 725.5,-1368 762.5,-1368 762.5,-1368 768.5,-1368 774.5,-1374 774.5,-1380 774.5,-1380 774.5,-1392 774.5,-1392 774.5,-1398 768.5,-1404 762.5,-1404"/>
<text text-anchor="middle" x="744" y="-1383.5" font-family="sans" font-size="10.00">filterfqPE</text>
</g>
<!-- 24&#45;&gt;23 -->
<g id="edge44" class="edge">
<title>24&#45;&gt;23</title>
<path fill="none" stroke="grey" stroke-width="2" d="M744,-1367.7C744,-1359.98 744,-1350.71 744,-1342.11"/>
<polygon fill="grey" stroke="grey" stroke-width="2" points="747.5,-1342.1 744,-1332.1 740.5,-1342.1 747.5,-1342.1"/>
</g>
<!-- 25&#45;&gt;19 -->
<g id="edge39" class="edge">
<title>25&#45;&gt;19</title>
<path fill="none" stroke="grey" stroke-width="2" d="M660.54,-1079.7C659,-1071.98 657.14,-1062.71 655.42,-1054.11"/>
<polygon fill="grey" stroke="grey" stroke-width="2" points="658.81,-1053.22 653.42,-1044.1 651.95,-1054.6 658.81,-1053.22"/>
</g>
<!-- 26&#45;&gt;13 -->
<g id="edge25" class="edge">
<title>26&#45;&gt;13</title>
<path fill="none" stroke="grey" stroke-width="2" d="M320,-647.7C320,-639.98 320,-630.71 320,-622.11"/>
<polygon fill="grey" stroke="grey" stroke-width="2" points="323.5,-622.1 320,-612.1 316.5,-622.1 323.5,-622.1"/>
</g>
<!-- 27&#45;&gt;26 -->
<g id="edge47" class="edge">
<title>27&#45;&gt;26</title>
<path fill="none" stroke="grey" stroke-width="2" d="M334.3,-719.7C332.19,-711.9 329.64,-702.51 327.28,-693.83"/>
<polygon fill="grey" stroke="grey" stroke-width="2" points="330.64,-692.84 324.64,-684.1 323.88,-694.67 330.64,-692.84"/>
</g>
<!-- 28&#45;&gt;27 -->
<g id="edge49" class="edge">
<title>28&#45;&gt;27</title>
<path fill="none" stroke="grey" stroke-width="2" d="M379.65,-791.7C373.24,-783.39 365.44,-773.28 358.39,-764.14"/>
<polygon fill="grey" stroke="grey" stroke-width="2" points="361.07,-761.88 352.19,-756.1 355.53,-766.16 361.07,-761.88"/>
</g>
<!-- 29 -->
<g id="node30" class="node">
<title>29</title>
<path fill="none" stroke="#566bd8" stroke-width="2" d="M635,-180C635,-180 555,-180 555,-180 549,-180 543,-174 543,-168 543,-168 543,-156 543,-156 543,-150 549,-144 555,-144 555,-144 635,-144 635,-144 641,-144 647,-150 647,-156 647,-156 647,-168 647,-168 647,-174 641,-180 635,-180"/>
<text text-anchor="middle" x="595" y="-159.5" font-family="sans" font-size="10.00">postannotatefilter</text>
</g>
<!-- 29&#45;&gt;1 -->
<g id="edge3" class="edge">
<title>29&#45;&gt;1</title>
<path fill="none" stroke="grey" stroke-width="2" d="M542.74,-146.07C504.18,-135.05 451.6,-120.03 411.1,-108.46"/>
<polygon fill="grey" stroke="grey" stroke-width="2" points="411.91,-105.05 401.34,-105.67 409.99,-111.78 411.91,-105.05"/>
</g>
<!-- 30&#45;&gt;29 -->
<g id="edge52" class="edge">
<title>30&#45;&gt;29</title>
<path fill="none" stroke="grey" stroke-width="2" d="M679.6,-215.88C665.09,-206.81 647.08,-195.55 631.41,-185.76"/>
<polygon fill="grey" stroke="grey" stroke-width="2" points="632.84,-182.52 622.5,-180.19 629.13,-188.46 632.84,-182.52"/>
</g>
<!-- 31&#45;&gt;30 -->
<g id="edge54" class="edge">
<title>31&#45;&gt;30</title>
<path fill="none" stroke="grey" stroke-width="2" d="M737.02,-1164.7C806.28,-1158.42 915.34,-1144.27 944,-1116 972.79,-1087.6 963,-1067.45 963,-1027 963,-1027 963,-1027 963,-377 963,-279.51 819.28,-248.39 747.21,-238.92"/>
<polygon fill="grey" stroke="grey" stroke-width="2" points="747.47,-235.42 737.12,-237.67 746.61,-242.37 747.47,-235.42"/>
</g>
<!-- 32&#45;&gt;31 -->
<g id="edge57" class="edge">
<title>32&#45;&gt;31</title>
<path fill="none" stroke="grey" stroke-width="2" d="M610.25,-1223.7C621.58,-1214.88 635.53,-1204.03 647.82,-1194.47"/>
<polygon fill="grey" stroke="grey" stroke-width="2" points="650.26,-1197.01 656.01,-1188.1 645.97,-1191.48 650.26,-1197.01"/>
</g>
<!-- 33&#45;&gt;30 -->
<g id="edge55" class="edge">
<title>33&#45;&gt;30</title>
<path fill="none" stroke="grey" stroke-width="2" d="M707,-287.7C707,-279.98 707,-270.71 707,-262.11"/>
<polygon fill="grey" stroke="grey" stroke-width="2" points="710.5,-262.1 707,-252.1 703.5,-262.1 710.5,-262.1"/>
</g>
<!-- 34&#45;&gt;33 -->
<g id="edge61" class="edge">
<title>34&#45;&gt;33</title>
<path fill="none" stroke="grey" stroke-width="2" d="M688.93,-359.7C691.61,-351.9 694.83,-342.51 697.8,-333.83"/>
<polygon fill="grey" stroke="grey" stroke-width="2" points="701.2,-334.7 701.14,-324.1 694.58,-332.43 701.2,-334.7"/>
</g>
</g>
</svg>
